<?xml version="1.0" standalone="no"?>
<!DOCTYPE svg PUBLIC "-//W3C//DTD SVG 20010904//EN"
 "http://www.w3.org/TR/2001/REC-SVG-20010904/DTD/svg10.dtd">
<svg version="1.0" xmlns="http://www.w3.org/2000/svg"
 width="640.000000pt" height="640.000000pt" viewBox="0 0 640.000000 640.000000"
 preserveAspectRatio="xMidYMid meet">
<metadata>
Created by potrace 1.14, written by Peter Selinger 2001-2017
</metadata>
<g transform="translate(0.000000,640.000000) scale(0.100000,-0.100000)"
fill="#000000" stroke="none">
<path d="M643 3763 c3 -2390 5 -2644 20 -2703 42 -169 56 -209 119 -338 138
-282 389 -511 691 -631 69 -28 157 -54 217 -64 138 -25 187 -29 192 -15 2 7 3
1159 3 2561 l-1 2547 1934 0 1934 0 -6 73 c-28 351 -197 675 -474 910 -140
119 -355 222 -574 274 -68 16 -208 18 -2066 21 l-1992 3 3 -2638z"/>
<path d="M3134 3216 l1 -661 1004 0 c750 0 1023 3 1077 12 251 43 464 243 524
494 23 99 21 250 -5 339 -57 189 -189 339 -368 419 -127 57 -80 55 -1198 56
l-1035 2 0 -661z"/>
<path d="M3201 1305 c-4 -5 -6 -300 -6 -655 l1 -645 684 -2 c407 -1 705 2 735
8 28 5 61 11 75 14 95 15 202 51 315 106 115 57 116 57 212 127 315 227 524
619 527 986 l1 69 -1268 1 c-835 1 -1271 -2 -1276 -9z"/>
</g>
</svg>
