<svg xmlns="http://www.w3.org/2000/svg" xmlns:xlink="http://www.w3.org/1999/xlink" width="14" height="32"><symbol fill="none" id="sprite-close" viewBox="0 0 14 14"><path d="m7 8.4-4.9 4.9a.948.948 0 0 1-.7.275.948.948 0 0 1-.7-.275.948.948 0 0 1-.275-.7.95.95 0 0 1 .275-.7L5.6 7 .7 2.1a.948.948 0 0 1-.275-.7A.95.95 0 0 1 .7.7a.948.948 0 0 1 .7-.275.95.95 0 0 1 .7.275L7 5.6 11.9.7a.948.948 0 0 1 .7-.275.95.95 0 0 1 .7.275.948.948 0 0 1 .275.7.948.948 0 0 1-.275.7L8.4 7l4.9 4.9a.948.948 0 0 1 .275.7.948.948 0 0 1-.275.7.948.948 0 0 1-.7.275.948.948 0 0 1-.7-.275L7 8.4Z" fill="#222"/></symbol><use fill="none" xlink:href="#sprite-close" width="14" height="14"/><symbol fill="none" id="sprite-dollar" viewBox="0 0 10 18"><path d="M4.025 18v-2.15a5.09 5.09 0 0 1-2.287-1.15c-.642-.567-1.113-1.367-1.413-2.4l1.85-.75c.25.8.621 1.408 1.113 1.825.491.417 1.137.625 1.937.625.684 0 1.263-.154 1.738-.463.475-.308.712-.787.712-1.437 0-.583-.183-1.046-.55-1.387-.366-.342-1.216-.73-2.55-1.163-1.433-.45-2.416-.988-2.95-1.613-.533-.625-.8-1.387-.8-2.287 0-1.083.35-1.925 1.05-2.525.7-.6 1.417-.942 2.15-1.025V0h2v2.1c.834.133 1.521.438 2.063.913A4.187 4.187 0 0 1 9.275 4.75l-1.85.8c-.2-.533-.483-.933-.85-1.2-.366-.267-.866-.4-1.5-.4-.733 0-1.291.162-1.675.487-.383.325-.575.73-.575 1.213 0 .55.25.983.75 1.3.5.317 1.367.65 2.6 1 1.15.333 2.021.862 2.613 1.587.591.725.887 1.563.887 2.513 0 1.183-.35 2.083-1.05 2.7-.7.617-1.566 1-2.6 1.15V18h-2Z" fill="#858585"/></symbol><use fill="none" xlink:href="#sprite-dollar" y="14" width="10" height="18"/></svg>