<svg xmlns="http://www.w3.org/2000/svg" xmlns:xlink="http://www.w3.org/1999/xlink" width="426.667" height="545.667"><symbol id="sprite-back" viewBox="0 0 6 10"><path d="M4.466 9.753.252 5.628a.78.78 0 0 1-.194-.292A.967.967 0 0 1 0 5c0-.12.02-.232.058-.336a.78.78 0 0 1 .194-.292L4.466.247A.879.879 0 0 1 5.106 0c.26 0 .474.082.642.247A.841.841 0 0 1 6 .874a.841.841 0 0 1-.252.628L2.176 5l3.572 3.498A.841.841 0 0 1 6 9.126a.841.841 0 0 1-.252.627.879.879 0 0 1-.641.247.879.879 0 0 1-.641-.247Z"/></symbol><use xlink:href="#sprite-back" width="6" height="10"/><symbol id="sprite-close" viewBox="0 0 14 14"><path d="m7 8.4-4.9 4.9a.948.948 0 0 1-.7.275.948.948 0 0 1-.7-.275.948.948 0 0 1-.275-.7.95.95 0 0 1 .275-.7L5.6 7 .7 2.1a.948.948 0 0 1-.275-.7A.95.95 0 0 1 .7.7a.948.948 0 0 1 .7-.275.95.95 0 0 1 .7.275L7 5.6 11.9.7a.948.948 0 0 1 .7-.275.95.95 0 0 1 .7.275.948.948 0 0 1 .275.7.948.948 0 0 1-.275.7L8.4 7l4.9 4.9a.948.948 0 0 1 .275.7.948.948 0 0 1-.275.7.948.948 0 0 1-.7.275.948.948 0 0 1-.7-.275L7 8.4Z"/></symbol><use xlink:href="#sprite-close" y="10" width="14" height="14"/><symbol fill="none" id="sprite-dollar" viewBox="0 0 10 18"><path d="M4.025 18v-2.15a5.09 5.09 0 0 1-2.287-1.15c-.642-.567-1.113-1.367-1.413-2.4l1.85-.75c.25.8.621 1.408 1.113 1.825.491.417 1.137.625 1.937.625.684 0 1.263-.154 1.738-.463.475-.308.712-.787.712-1.437 0-.583-.183-1.046-.55-1.387-.366-.342-1.216-.73-2.55-1.163-1.433-.45-2.416-.988-2.95-1.613-.533-.625-.8-1.387-.8-2.287 0-1.083.35-1.925 1.05-2.525.7-.6 1.417-.942 2.15-1.025V0h2v2.1c.834.133 1.521.438 2.063.913A4.187 4.187 0 0 1 9.275 4.75l-1.85.8c-.2-.533-.483-.933-.85-1.2-.366-.267-.866-.4-1.5-.4-.733 0-1.291.162-1.675.487-.383.325-.575.73-.575 1.213 0 .55.25.983.75 1.3.5.317 1.367.65 2.6 1 1.15.333 2.021.862 2.613 1.587.591.725.887 1.563.887 2.513 0 1.183-.35 2.083-1.05 2.7-.7.617-1.566 1-2.6 1.15V18h-2Z" fill="#858585"/></symbol><use fill="none" xlink:href="#sprite-dollar" y="24" width="10" height="18"/><symbol id="sprite-edit" viewBox="0 0 13 13"><path d="M1.402 12.667c-.34 0-.63-.121-.873-.363a1.187 1.187 0 0 1-.362-.872v-8.64c0-.339.12-.63.362-.871a1.19 1.19 0 0 1 .873-.363h5.515L5.68 2.793H1.402v8.64h8.65v-4.29L11.29 5.91v5.523c0 .34-.121.63-.363.872a1.192 1.192 0 0 1-.873.363h-8.65ZM8.307 1.913l.88.864L5.11 6.85v.88h.865l4.093-4.089.88.864-4.093 4.089a1.315 1.315 0 0 1-.393.27c-.15.067-.307.1-.472.1H4.492a.598.598 0 0 1-.44-.177.597.597 0 0 1-.178-.44V6.85a1.22 1.22 0 0 1 .355-.864l4.078-4.073Zm2.642 2.592L8.307 1.913 9.852.37c.247-.247.543-.37.888-.37s.636.123.873.37l.865.88c.237.236.355.524.355.864 0 .34-.118.627-.355.864l-1.53 1.527Z"/></symbol><use xlink:href="#sprite-edit" y="42" width="13" height="13"/><symbol id="sprite-filter" viewBox="0 0 12 12"><path d="M5.334 11.333a.643.643 0 0 1-.475-.192.643.643 0 0 1-.192-.474v-4L.8 1.733a.634.634 0 0 1-.074-.7c.116-.244.319-.366.608-.366h9.333c.289 0 .492.122.609.366a.635.635 0 0 1-.076.7L7.334 6.667v4a.644.644 0 0 1-.192.474.646.646 0 0 1-.475.192H5.334ZM6 6.2 9.3 2H2.7L6 6.2Z"/></symbol><use xlink:href="#sprite-filter" y="55" width="12" height="12"/><symbol id="sprite-location" viewBox="0 0 16 20"><path d="M8 10c.55 0 1.02-.196 1.412-.588C9.804 9.021 10 8.55 10 8c0-.55-.196-1.02-.588-1.412A1.926 1.926 0 0 0 8 6c-.55 0-1.02.196-1.412.588A1.926 1.926 0 0 0 6 8c0 .55.196 1.02.588 1.412C6.979 9.804 7.45 10 8 10Zm0 7.35c2.033-1.867 3.542-3.563 4.525-5.088C13.508 10.738 14 9.383 14 8.2c0-1.817-.58-3.304-1.738-4.462C11.104 2.579 9.683 2 8 2c-1.683 0-3.104.58-4.263 1.737C2.58 4.896 2 6.383 2 8.2c0 1.183.492 2.538 1.475 4.063.983 1.524 2.492 3.22 4.525 5.087ZM8 20c-2.683-2.283-4.688-4.404-6.013-6.363C.662 11.68 0 9.867 0 8.2c0-2.5.804-4.492 2.413-5.975C4.02.742 5.883 0 8 0c2.117 0 3.98.742 5.588 2.225S16 5.7 16 8.2c0 1.667-.662 3.48-1.988 5.438C12.688 15.595 10.683 17.716 8 20Z"/></symbol><use xlink:href="#sprite-location" y="67" width="16" height="20"/><symbol id="sprite-order" viewBox="0 0 22 20"><path d="M2 18c-.55 0-1.02-.196-1.412-.587A1.927 1.927 0 0 1 0 16V2C0 1.45.196.979.588.587A1.925 1.925 0 0 1 2 0h6c.55 0 1.021.196 1.413.587C9.804.979 10 1.45 10 2v2h8c.55 0 1.021.196 1.413.587.391.392.587.863.587 1.413v6h-2V6h-8v2h2v2h-2v2h2v2h-2v2h4v2H2Zm0-2h2v-2H2v2Zm0-4h2v-2H2v2Zm0-4h2V6H2v2Zm0-4h2V2H2v2Zm4 12h2v-2H6v2Zm0-4h2v-2H6v2Zm0-4h2V6H6v2Zm0-4h2V2H6v2Zm13 16a.965.965 0 0 1-.712-.288A.965.965 0 0 1 18 19v-1h-1a.965.965 0 0 1-.712-.288A.965.965 0 0 1 16 17c0-.283.096-.52.288-.712A.965.965 0 0 1 17 16h1v-1c0-.283.096-.52.288-.712A.965.965 0 0 1 19 14c.283 0 .52.096.712.288A.965.965 0 0 1 20 15v1h1c.283 0 .52.096.712.288A.965.965 0 0 1 22 17c0 .283-.096.52-.288.712A.965.965 0 0 1 21 18h-1v1c0 .283-.096.52-.288.712A.965.965 0 0 1 19 20Zm-5-10V8h2v2h-2Zm0 4v-2h2v2h-2Z"/></symbol><use xlink:href="#sprite-order" y="87" width="22" height="20"/><symbol id="sprite-plus" viewBox="0 0 426.667 426.667"><path d="M405.332 192H234.668V21.332C234.668 9.559 225.109 0 213.332 0 201.559 0 192 9.559 192 21.332V192H21.332C9.559 192 0 201.559 0 213.332c0 11.777 9.559 21.336 21.332 21.336H192v170.664c0 11.777 9.559 21.336 21.332 21.336 11.777 0 21.336-9.559 21.336-21.336V234.668h170.664c11.777 0 21.336-9.559 21.336-21.336 0-11.773-9.559-21.332-21.336-21.332zm0 0"/></symbol><use xlink:href="#sprite-plus" y="107" width="426.667" height="426.667"/><symbol id="sprite-trash" viewBox="0 0 12 12"><path d="M2.667 12c-.367 0-.68-.13-.942-.391a1.285 1.285 0 0 1-.392-.942V2a.647.647 0 0 1-.475-.191.647.647 0 0 1-.191-.476c0-.189.063-.347.19-.475a.647.647 0 0 1 .476-.191H4c0-.19.064-.348.192-.476A.645.645 0 0 1 4.666 0h2.667c.19 0 .348.064.476.191a.647.647 0 0 1 .19.476h2.667a.64.64 0 0 1 .475.191.646.646 0 0 1 .192.475.646.646 0 0 1-.192.476.645.645 0 0 1-.475.191v8.667c0 .366-.13.68-.39.942-.262.26-.576.391-.943.391H2.666Zm0-10v8.667h6.666V2H2.666ZM4 8.667a.64.64 0 0 0 .192.474.643.643 0 0 0 .474.192.646.646 0 0 0 .476-.192.645.645 0 0 0 .191-.474V4a.647.647 0 0 0-.191-.475.647.647 0 0 0-.476-.192.644.644 0 0 0-.474.192A.646.646 0 0 0 4 4v4.667Zm2.667 0a.64.64 0 0 0 .192.474.643.643 0 0 0 .474.192.646.646 0 0 0 .476-.192.644.644 0 0 0 .19-.474V4a.647.647 0 0 0-.19-.475.647.647 0 0 0-.476-.192.645.645 0 0 0-.474.192.646.646 0 0 0-.192.475v4.667Z"/></symbol><use xlink:href="#sprite-trash" y="533.667" width="12" height="12"/></svg>